<svg width="200" height="200" xmlns="http://www.w3.org/2000/svg" xmlns:xlink="http://www.w3.org/1999/xlink"><defs><linearGradient x1="50%" y1="0%" x2="50%" y2="100%" id="c"><stop stop-color="#DDD" offset="0%"/><stop stop-color="#C4C4C4" offset="100%"/></linearGradient><path d="M79.5 159C35.593 159 0 123.407 0 79.5S35.593 0 79.5 0 159 35.593 159 79.5 123.407 159 79.5 159z" id="b"/><filter x="-.3%" y="-.3%" width="100.6%" height="101.3%" filterUnits="objectBoundingBox" id="a"><feOffset dy="1" in="SourceAlpha" result="shadowOffsetOuter1"/><feColorMatrix values="0 0 0 0 0.534571641 0 0 0 0 0.534571641 0 0 0 0 0.534571641 0 0 0 1 0" in="shadowOffsetOuter1"/></filter><path d="M79.5 154.788c41.58 0 75.288-33.708 75.288-75.288S121.08 4.212 79.5 4.212 4.212 37.92 4.212 79.5 37.92 154.788 79.5 154.788z" id="d"/><filter x="-.3%" y="-.3%" width="100.7%" height="100.7%" filterUnits="objectBoundingBox" id="e"><feOffset dy="1" in="SourceAlpha" result="shadowOffsetInner1"/><feComposite in="shadowOffsetInner1" in2="SourceAlpha" operator="arithmetic" k2="-1" k3="1" result="shadowInnerInner1"/><feColorMatrix values="0 0 0 0 0.533333333 0 0 0 0 0.533333333 0 0 0 0 0.533333333 0 0 0 0.5 0" in="shadowInnerInner1"/></filter></defs><g fill="none" fill-rule="evenodd"><g transform="translate(21 21)"><use fill="#000" filter="url(#a)" xlink:href="#b"/><use fill="url(#c)" xlink:href="#b"/></g><g fill-rule="nonzero" transform="translate(21 21)"><use fill="#FFF" fill-rule="evenodd" xlink:href="#d"/><use fill="#000" filter="url(#e)" xlink:href="#d"/></g><path d="M100 47.5v15m26.5-7.9L119 67.592M145.9 74l-12.991 7.5m20.091 19h-15m7.9 26.5l-12.991-7.5m-6.409 26.9l-7.5-12.991M100 153.5v-15m-26.5 7.9l7.5-12.991M54.1 127l12.991-7.5M47 100.5h15M54.1 74l12.991 7.5M73.5 54.6L81 67.592" stroke="#AEAEAE" stroke-linecap="square"/><path d="M105.54 47.79l-.732 6.962m6.211-6.094l-1.455 6.847m6.814-5.411l-2.163 6.657m7.342-4.669l-2.847 6.395m12.443-.855l-4.115 5.663m8.426-2.172l-4.684 5.202m8.607-1.279l-5.202 4.684m8.693-.373l-5.663 4.115m11.203 5.481l-6.395 2.847m8.383 2.332l-6.657 2.163m8.093 3.196l-6.847 1.455m7.715 4.024l-6.962.732m6.962 10.348l-6.962-.732m6.094 6.211l-6.847-1.455m5.411 6.814l-6.657-2.163m4.669 7.342l-6.395-2.847m.855 12.443l-5.663-4.115m2.172 8.426l-5.202-4.684m1.279 8.607l-4.684-5.202m.373 8.693l-4.115-5.663m-5.481 11.203l-2.847-6.395m-2.332 8.383l-2.163-6.657m-3.196 8.093l-1.455-6.847m-4.024 7.715l-.732-6.962M94.46 153.21l.732-6.962m-6.211 6.094l1.455-6.847m-6.814 5.411l2.163-6.657m-7.342 4.669l2.847-6.395m-12.443.855l4.115-5.663m-8.426 2.172l4.684-5.202m-8.607 1.279l5.202-4.684m-8.693.373l5.663-4.115m-11.203-5.481l6.395-2.847m-8.383-2.332l6.657-2.163m-8.093-3.196l6.847-1.455m-7.715-4.024l6.962-.732M47.29 94.96l6.962.732m-6.094-6.211l6.847 1.455m-5.411-6.814l6.657 2.163m-4.669-7.342l6.395 2.847m-.855-12.443l5.663 4.115m-2.172-8.426l5.202 4.684m-1.279-8.607l4.684 5.202m-.373-8.693l4.115 5.663m5.481-11.203l2.847 6.395m2.332-8.383l2.163 6.657m3.196-8.093l1.455 6.847m4.024-7.715l.732 6.962" stroke="#DCDCDC" stroke-linecap="square"/><g fill="#484848"><path d="M100.007 42.126c-.933 0-1.636-.303-2.107-.91-.471-.607-.707-1.419-.707-2.436v-4.886c0-1.036.231-1.85.693-2.443.462-.593 1.169-.889 2.121-.889.943 0 1.645.296 2.107.889.462.593.693 1.407.693 2.443v4.886c0 1.027-.233 1.841-.7 2.443-.467.602-1.167.903-2.1.903zm0-1.232c.859 0 1.288-.7 1.288-2.1V33.88c0-.644-.091-1.155-.273-1.533-.182-.378-.52-.567-1.015-.567-.495 0-.835.189-1.022.567-.187.378-.28.889-.28 1.533v4.914c0 1.4.434 2.1 1.302 2.1zM129.212 50.327c-.849-.49-1.318-1.081-1.409-1.775-.09-.693.136-1.508.677-2.446l1.298.75c-.318.549-.497 1.032-.54 1.45-.04.418.156.753.593 1.005.331.191.634.236.908.136.273-.1.524-.298.753-.592.229-.293.497-.707.805-1.24.285-.493.486-.902.604-1.228.118-.325.143-.612.077-.86-.067-.25-.258-.465-.573-.647a1.178 1.178 0 0 0-.794-.15 1.669 1.669 0 0 0-.766.333l-1.103-.637 3.038-5.262 4.231 2.443-.749 1.297-3.055-1.764-1.653 2.667c.557-.163 1.135-.072 1.733.273.752.434 1.14 1 1.162 1.698.023.697-.229 1.503-.756 2.416-.644 1.115-1.328 1.88-2.05 2.292-.724.412-1.534.36-2.431-.159zM157.083 62.96c-.033-.002-.231-.214-.593-.636-.362-.421-.61-.711-.745-.87l.982-.568c.803.851 1.549 1.32 2.236 1.41l.567.981-9.821 5.67-.75-1.297 8.124-4.69zm-4.795 10.706c-.467-.808-.555-1.568-.266-2.28.29-.711.875-1.321 1.756-1.83l4.232-2.443c.897-.518 1.718-.725 2.462-.621.744.103 1.354.568 1.83 1.392.472.816.566 1.573.284 2.27-.282.696-.872 1.303-1.77 1.82l-4.23 2.444c-.89.513-1.712.718-2.466.615-.755-.103-1.366-.559-1.832-1.367zm1.067-.616c.429.744 1.25.765 2.462.065l4.256-2.457c.558-.322.955-.656 1.191-1.002.236-.347.231-.735-.016-1.163-.248-.428-.582-.629-1.002-.602-.421.028-.91.202-1.468.524l-4.256 2.457c-1.212.7-1.601 1.426-1.167 2.178zM169.109 96.55c-.028-.019-.093-.301-.196-.847-.103-.546-.173-.922-.21-1.127h1.134c.27 1.139.681 1.918 1.232 2.338v1.134h-11.34V96.55h9.38zm-9.492 6.832c0-.98.278-1.682.833-2.107.555-.425 1.374-.637 2.457-.637v1.498c-.635 0-1.143.086-1.526.259-.383.173-.574.511-.574 1.015 0 .383.112.667.336.854.224.187.52.306.889.357.369.051.861.077 1.477.077.57 0 1.024-.03 1.365-.091.34-.06.602-.182.784-.364.182-.182.273-.455.273-.819 0-.29-.089-.544-.266-.763a1.669 1.669 0 0 0-.672-.497v-1.274h6.076v4.886h-1.498v-3.528l-3.136-.098c.42.401.63.947.63 1.638 0 .868-.296 1.486-.889 1.855s-1.416.553-2.471.553c-1.288 0-2.291-.21-3.01-.63-.719-.42-1.078-1.148-1.078-2.184zM157.086 125.695l2.45 4.745c.124.233.198.384.223.452.29.544.547.968.77 1.27.225.302.548.574.968.817.469.27.873.401 1.212.392.34-.009.61-.187.81-.535.448-.776.07-1.511-1.135-2.206l-.327-.19.749-1.297.34.196c.921.532 1.519 1.13 1.792 1.795.274.665.168 1.417-.317 2.258-.448.776-1.007 1.235-1.676 1.376-.67.142-1.408-.02-2.216-.487a4.28 4.28 0 0 1-1.594-1.55c-.152-.26-.359-.65-.62-1.167l-2.142-4.243-1.792 3.104-1.09-.63 2.673-4.632.922.532zm-5.812 7.686c.467-.808 1.08-1.265 1.842-1.37.76-.105 1.582.097 2.463.606l4.231 2.443c.897.518 1.487 1.125 1.77 1.822.282.696.185 1.457-.291 2.281-.471.816-1.08 1.276-1.824 1.38-.744.104-1.565-.103-2.462-.621l-4.231-2.443c-.89-.513-1.478-1.123-1.766-1.828-.288-.705-.199-1.462.268-2.27zm1.067.616c-.43.744-.038 1.465 1.175 2.165l4.255 2.457c.558.322 1.046.5 1.465.53.418.032.75-.167.998-.595.247-.428.254-.818.02-1.169-.234-.35-.63-.687-1.188-1.009l-4.255-2.457c-1.213-.7-2.036-.674-2.47.078zM136.104 150.27l-.25 5.335c-.01.264-.02.431-.033.503-.021.616-.01 1.111.033 1.485.043.374.186.77.429 1.19.27.47.555.785.853.947.298.162.621.143.969-.058.776-.448.816-1.274.12-2.479l-.188-.327 1.297-.749.196.34c.532.92.75 1.738.655 2.45-.095.713-.563 1.311-1.403 1.797-.776.448-1.49.566-2.14.354-.65-.212-1.209-.722-1.676-1.53a4.28 4.28 0 0 1-.605-2.14c-.001-.301.014-.741.046-1.32l.268-4.746-3.104 1.792-.63-1.09 4.631-2.675.532.922zm-8.832 3.742c.848-.49 1.595-.6 2.24-.332.646.269 1.24.872 1.781 1.81l-1.297.748c-.318-.55-.647-.947-.988-1.192-.34-.245-.73-.241-1.166.01-.33.192-.521.431-.571.719-.05.287-.005.603.135.948s.364.784.672 1.318c.285.493.538.872.761 1.136.223.265.459.43.708.497.248.067.53.01.845-.173.25-.144.427-.348.528-.612.101-.263.133-.54.095-.83l1.103-.637 3.038 5.262-4.232 2.443-.749-1.297 3.056-1.764-1.483-2.765c-.138.564-.506 1.019-1.104 1.364-.752.434-1.435.487-2.05.158-.616-.329-1.188-.95-1.715-1.863-.644-1.116-.964-2.09-.96-2.922.005-.833.456-1.508 1.353-2.026zM103.304 159.562c.905 0 1.594.254 2.065.763.471.509.707 1.225.707 2.149v.378h-1.484v-.252c-.019-.579-.119-1.022-.301-1.33-.182-.308-.511-.462-.987-.462-.504 0-.847.175-1.029.525-.182.35-.273.87-.273 1.561 0 .635.117 1.132.35 1.491.233.36.611.558 1.134.595.037.01.107.014.21.014v1.498h-.196c-.532.019-.915.159-1.148.42-.233.261-.35.695-.35 1.302 0 .56.093.982.28 1.267.187.285.523.427 1.008.427s.819-.154 1.001-.462c.182-.308.282-.76.301-1.358v-.238h1.484v.378c0 .924-.236 1.638-.707 2.142s-1.164.756-2.079.756c-.915 0-1.608-.254-2.079-.763-.471-.509-.707-1.225-.707-2.149 0-.663.145-1.204.434-1.624.29-.42.686-.705 1.19-.854a2.057 2.057 0 0 1-1.197-.966c-.285-.485-.427-1.11-.427-1.876 0-1.055.226-1.874.679-2.457.453-.583 1.16-.875 2.121-.875zm-6.65 0c.933 0 1.636.303 2.107.91.471.607.707 1.419.707 2.436v4.886c0 1.036-.231 1.85-.693 2.443-.462.593-1.169.889-2.121.889-.943 0-1.645-.296-2.107-.889-.462-.593-.693-1.407-.693-2.443v-4.886c0-1.027.233-1.841.7-2.443.467-.602 1.167-.903 2.1-.903zm0 1.232c-.859 0-1.288.7-1.288 2.1v4.914c0 .644.091 1.155.273 1.533.182.378.52.567 1.015.567.495 0 .835-.189 1.022-.567.187-.378.28-.889.28-1.533v-4.914c0-1.4-.434-2.1-1.302-2.1zM73.827 153c.784.452 1.253 1.016 1.406 1.692.154.677 0 1.415-.462 2.215l-.189.327-1.285-.742.126-.218c.273-.51.408-.944.404-1.302-.003-.358-.211-.656-.623-.894-.437-.252-.821-.272-1.154-.06-.333.212-.672.618-1.017 1.216-.317.55-.465 1.038-.442 1.466.022.428.25.789.684 1.082.028.027.086.066.175.117l-.749 1.298-.17-.098c-.47-.25-.871-.32-1.204-.21-.333.11-.65.427-.954.952-.28.485-.41.897-.391 1.237.02.34.24.631.66.874.42.243.786.276 1.097.1.312-.175.625-.517.94-1.025l.119-.206 1.285.742-.189.327c-.462.8-1.023 1.3-1.683 1.502-.66.2-1.386.072-2.179-.385-.792-.457-1.265-1.024-1.419-1.7-.153-.677 0-1.415.463-2.215.331-.574.727-.97 1.188-1.19.46-.218.946-.267 1.457-.144a2.057 2.057 0 0 1-.554-1.435c-.003-.563.186-1.175.569-1.838.527-.914 1.133-1.51 1.816-1.789.684-.278 1.442-.178 2.275.303zm-5.73-3.293c.849.49 1.318 1.082 1.408 1.775.09.693-.135 1.509-.677 2.446l-1.297-.749c.317-.55.497-1.033.539-1.45.041-.418-.156-.753-.592-1.005-.332-.191-.634-.237-.908-.136-.274.1-.525.298-.754.591-.228.294-.497.707-.805 1.24-.285.494-.486.903-.604 1.228-.117.326-.143.613-.076.861.066.249.257.464.572.646.251.145.516.195.794.151.279-.043.534-.155.767-.333l1.103.637-3.038 5.262-4.231-2.443.749-1.297 3.055 1.764 1.653-2.667c-.558.163-1.136.072-1.734-.274-.751-.434-1.139-1-1.162-1.697-.023-.698.23-1.503.757-2.416.644-1.116 1.327-1.88 2.05-2.292.724-.413 1.534-.36 2.43.158zM47.79 134.62l1.63 2.825-1.443.833-7.251.824-.931-1.613 6.014-3.472-.63-1.09 1.224-.708.63 1.091 2.583-1.49.756 1.309-2.583 1.49zm-1.225.707l-4.365 2.52 5.24-1.005-.875-1.515zm.668-7.887c.467.808.555 1.568.265 2.28-.29.711-.875 1.321-1.756 1.83l-4.231 2.443c-.897.518-1.718.725-2.462.621-.745-.103-1.355-.567-1.83-1.392-.472-.816-.567-1.573-.284-2.27.282-.696.872-1.303 1.769-1.82l4.231-2.444c.89-.513 1.711-.718 2.466-.615.755.103 1.365.559 1.832 1.367zm-1.067.616c-.43-.744-1.25-.765-2.463-.065l-4.255 2.457c-.558.322-.955.656-1.192 1.003-.236.346-.23.734.017 1.162.247.428.581.629 1.002.602.42-.028.91-.202 1.468-.524l4.255-2.457c1.213-.7 1.602-1.426 1.168-2.178zM38.188 103.389v3.262h-1.666l-6.692-2.912v-1.862h6.944v-1.26h1.414v1.26h2.982v1.512h-2.982zm-1.414 0h-5.04l5.04 1.75v-1.75zm4.508-6.454c0 .98-.278 1.682-.833 2.107-.555.425-1.374.637-2.457.637v-1.498c.635 0 1.143-.086 1.526-.259.383-.173.574-.511.574-1.015 0-.383-.112-.667-.336-.854-.224-.187-.52-.306-.889-.357a11.206 11.206 0 0 0-1.477-.077c-.57 0-1.024.03-1.365.091-.34.06-.602.182-.784.364-.182.182-.273.455-.273.819 0 .29.089.544.266.763.177.22.401.385.672.497v1.274H29.83v-4.886h1.498v3.528l3.136.098c-.42-.401-.63-.947-.63-1.638 0-.868.296-1.486.889-1.855s1.416-.553 2.471-.553c1.288 0 2.291.21 3.01.63.719.42 1.078 1.148 1.078 2.184zM47.319 74.156c-.49.849-1.082 1.318-1.775 1.408-.693.09-1.509-.135-2.446-.677l.749-1.297c.55.317 1.033.497 1.45.539.418.042.753-.156 1.005-.592.191-.332.237-.634.136-.908-.1-.273-.298-.525-.591-.753a11.206 11.206 0 0 0-1.24-.806c-.494-.284-.903-.486-1.228-.603-.326-.118-.613-.144-.861-.077-.249.067-.464.257-.646.573-.145.25-.195.515-.151.793.043.28.155.535.333.767l-.637 1.103-5.262-3.038 2.443-4.231 1.297.749-1.764 3.055 2.667 1.653c-.163-.558-.072-1.135.274-1.734.434-.751 1-1.139 1.697-1.162.698-.022 1.503.23 2.416.757 1.116.644 1.88 1.328 2.292 2.05.413.724.36 1.534-.158 2.431zm3.365-5.8c-.467.808-1.08 1.264-1.842 1.37-.76.104-1.582-.098-2.463-.607l-4.231-2.443c-.897-.518-1.487-1.125-1.77-1.821-.282-.697-.185-1.457.291-2.282.471-.816 1.08-1.276 1.824-1.38.744-.104 1.565.104 2.462.622l4.231 2.443c.89.513 1.478 1.122 1.766 1.827.288.705.199 1.462-.268 2.27zm-1.067-.617c.43-.743.038-1.465-1.175-2.165l-4.255-2.457c-.558-.322-1.046-.499-1.465-.53-.418-.031-.75.167-.998.595-.247.429-.254.818-.02 1.169.234.35.63.687 1.188 1.009l4.255 2.457c1.213.7 2.036.674 2.47-.078zM68.052 52.028c-.849.49-1.596.601-2.241.332-.646-.268-1.239-.871-1.78-1.809l1.297-.749c.317.55.646.947.987 1.192.341.245.73.242 1.166-.01.332-.192.522-.43.572-.718.05-.288.004-.604-.135-.949-.14-.345-.364-.784-.672-1.317-.285-.493-.539-.872-.762-1.137-.222-.265-.458-.43-.707-.497-.248-.066-.53-.009-.846.173-.25.145-.426.349-.527.612-.102.263-.133.54-.095.83l-1.103.638-3.038-5.262 4.231-2.443.75 1.297-3.056 1.764 1.483 2.765c.138-.565.506-1.02 1.104-1.365.751-.434 1.435-.486 2.05-.157.616.329 1.188.95 1.715 1.863.644 1.115.964 2.09.96 2.922-.005.832-.456 1.507-1.353 2.025zm5.771-3.332c-.848.49-1.595.601-2.24.332-.646-.268-1.24-.871-1.781-1.809l1.297-.749c.318.55.647.947.988 1.192.34.245.73.242 1.166-.01.33-.192.521-.43.571-.718.05-.288.005-.604-.135-.949s-.364-.784-.672-1.317c-.285-.493-.538-.872-.761-1.137-.223-.265-.459-.43-.708-.497-.248-.066-.53-.009-.845.173-.25.145-.427.349-.528.612-.101.263-.133.54-.095.83l-1.103.638-3.038-5.262 4.232-2.443.749 1.297-3.056 1.764 1.483 2.765c.138-.565.506-1.02 1.104-1.365.752-.434 1.435-.486 2.05-.157.616.329 1.188.95 1.715 1.863.644 1.115.964 2.09.96 2.922-.005.832-.456 1.507-1.353 2.025z"/></g></g></svg>