<?xml version="1.0" encoding="UTF-8"?>
<svg width="200px" height="200px" viewBox="0 0 200 200" version="1.1" xmlns="http://www.w3.org/2000/svg" xmlns:xlink="http://www.w3.org/1999/xlink">
    <!-- Generator: Sketch 48.1 (47250) - http://www.bohemiancoding.com/sketch -->
    <title>timer</title>
    <desc>Created with Sketch.</desc>
    <defs>
        <linearGradient x1="50%" y1="0%" x2="50%" y2="100%" id="linearGradient-1">
            <stop stop-color="#DDDDDD" offset="0%"></stop>
            <stop stop-color="#C4C4C4" offset="100%"></stop>
        </linearGradient>
        <path d="M100.5,180 C56.5933624,180 21,144.406638 21,100.5 C21,56.5933624 56.5933624,21 100.5,21 C144.406638,21 180,56.5933624 180,100.5 C180,144.406638 144.406638,180 100.5,180 Z" id="path-2"></path>
        <filter x="-0.3%" y="-0.3%" width="100.6%" height="101.3%" filterUnits="objectBoundingBox" id="filter-3">
            <feOffset dx="0" dy="1" in="SourceAlpha" result="shadowOffsetOuter1"></feOffset>
            <feColorMatrix values="0 0 0 0 0.534571641   0 0 0 0 0.534571641   0 0 0 0 0.534571641  0 0 0 1 0" type="matrix" in="shadowOffsetOuter1"></feColorMatrix>
        </filter>
        <path d="M100.5,175.788079 C142.080458,175.788079 175.788079,142.080458 175.788079,100.5 C175.788079,58.9195419 142.080458,25.2119205 100.5,25.2119205 C58.9195419,25.2119205 25.2119205,58.9195419 25.2119205,100.5 C25.2119205,142.080458 58.9195419,175.788079 100.5,175.788079 Z" id="path-4"></path>
        <filter x="-0.3%" y="-0.3%" width="100.7%" height="100.7%" filterUnits="objectBoundingBox" id="filter-5">
            <feOffset dx="0" dy="1" in="SourceAlpha" result="shadowOffsetInner1"></feOffset>
            <feComposite in="shadowOffsetInner1" in2="SourceAlpha" operator="arithmetic" k2="-1" k3="1" result="shadowInnerInner1"></feComposite>
            <feColorMatrix values="0 0 0 0 0.533333333   0 0 0 0 0.533333333   0 0 0 0 0.533333333  0 0 0 0.5 0" type="matrix" in="shadowInnerInner1"></feColorMatrix>
        </filter>
        <circle id="path-6" cx="100.5" cy="100.5" r="15.5"></circle>
        <filter x="-1.6%" y="-1.6%" width="103.2%" height="106.5%" filterUnits="objectBoundingBox" id="filter-7">
            <feOffset dx="0" dy="1" in="SourceAlpha" result="shadowOffsetOuter1"></feOffset>
            <feColorMatrix values="0 0 0 0 0.534571641   0 0 0 0 0.534571641   0 0 0 0 0.534571641  0 0 0 1 0" type="matrix" in="shadowOffsetOuter1"></feColorMatrix>
        </filter>
        <linearGradient x1="50%" y1="0%" x2="50%" y2="100%" id="linearGradient-8">
            <stop stop-color="#FFFFFF" offset="0%"></stop>
            <stop stop-color="#D5F3FF" offset="100%"></stop>
        </linearGradient>
    </defs>
    <g id="Page-1" stroke="none" stroke-width="1" fill="none" fill-rule="evenodd">
        <g id="timer">
            <g id="Border">
                <use fill="black" fill-opacity="1" filter="url(#filter-3)" xlink:href="#path-2"></use>
                <use fill="url(#linearGradient-1)" fill-rule="evenodd" xlink:href="#path-2"></use>
            </g>
            <g id="Shield" fill-rule="nonzero">
                <use fill="#FFFFFF" fill-rule="evenodd" xlink:href="#path-4"></use>
                <use fill="black" fill-opacity="1" filter="url(#filter-5)" xlink:href="#path-4"></use>
            </g>
            <path d="M100,47.5 L100,62.5 M126.5,54.6006536 L119,67.5910347 M145.899346,74 L132.908965,81.5 M153,100.5 L138,100.5 M145.899346,127 L132.908965,119.5 M126.5,146.399346 L119,133.408965 M100,153.5 L100,138.5 M73.5,146.399346 L81,133.408965 M54.1006536,127 L67.0910347,119.5 M47,100.5 L62,100.5 M54.1006536,74 L67.0910347,81.5 M73.5,54.6006536 L81,67.5910347" id="5-Minuttes" stroke="#AEAEAE" stroke-linecap="square"></path>
            <path d="M105.540009,47.7903395 L104.808309,54.7519928 M111.01932,48.6581772 L109.563938,55.5052104 M116.377901,50.0940046 L114.214782,56.7514003 M121.557042,52.0820907 L118.709886,58.4769089 M131.152618,57.6220993 L127.038122,63.2852183 M135.463922,61.1133242 L130.780008,66.315338 M139.386676,65.0360779 L134.184662,69.7199921 M142.877901,69.3473816 L137.214782,73.4618784 M148.417909,78.9429579 L142.023091,81.7901144 M150.405995,84.1220993 L143.7486,86.2852183 M151.841823,89.4806804 L144.99479,90.9360622 M152.70966,94.9599914 L145.748007,95.6916907 M152.70966,106.040009 L145.748007,105.308309 M151.841823,111.51932 L144.99479,110.063938 M150.405995,116.877901 L143.7486,114.714782 M148.417909,122.057042 L142.023091,119.209886 M142.877901,131.652618 L137.214782,127.538122 M139.386676,135.963922 L134.184662,131.280008 M135.463922,139.886676 L130.780008,134.684662 M131.152618,143.377901 L127.038122,137.714782 M121.557042,148.917909 L118.709886,142.523091 M116.377901,150.905995 L114.214782,144.2486 M111.01932,152.341823 L109.563938,145.49479 M105.540009,153.20966 L104.808309,146.248007 M94.4599914,153.20966 L95.1916907,146.248007 M88.9806804,152.341823 L90.4360622,145.49479 M83.6220993,150.905995 L85.7852183,144.2486 M78.4429579,148.917909 L81.2901144,142.523091 M68.8473816,143.377901 L72.9618784,137.714782 M64.5360779,139.886676 L69.2199921,134.684662 M60.6133242,135.963922 L65.815338,131.280008 M57.1220993,131.652618 L62.7852183,127.538122 M51.5820907,122.057042 L57.9769089,119.209886 M49.5940046,116.877901 L56.2514003,114.714782 M48.1581772,111.51932 L55.0052104,110.063938 M47.2903395,106.040009 L54.2519928,105.308309 M47.2903395,94.9599914 L54.2519928,95.6916907 M48.1581772,89.4806804 L55.0052104,90.9360622 M49.5940046,84.1220993 L56.2514003,86.2852183 M51.5820907,78.9429579 L57.9769089,81.7901144 M57.1220993,69.3473816 L62.7852183,73.4618784 M60.6133242,65.0360779 L65.815338,69.7199921 M64.5360779,61.1133242 L69.2199921,66.315338 M68.8473816,57.6220993 L72.9618784,63.2852183 M78.4429579,52.0820907 L81.2901144,58.4769089 M83.6220993,50.0940046 L85.7852183,56.7514003 M88.9806804,48.6581772 L90.4360622,55.5052104 M94.4599914,47.7903395 L95.1916907,54.7519928" id="Minutes" stroke="#DCDCDC" stroke-linecap="square"></path>
            <g id="Labels---Paths" transform="translate(28.000000, 29.000000)" fill="#484848">
                <path d="M72.007,13.126 C71.073662,13.126 70.3713357,12.8226697 69.9,12.216 C69.4286643,11.6093303 69.193,10.7973384 69.193,9.78 L69.193,4.894 C69.193,3.85799482 69.4239977,3.04366963 69.886,2.451 C70.3480023,1.85833037 71.0549952,1.562 72.007,1.562 C72.9496714,1.562 73.6519977,1.85833037 74.114,2.451 C74.5760023,3.04366963 74.807,3.85799482 74.807,4.894 L74.807,9.78 C74.807,10.8066718 74.573669,11.620997 74.107,12.223 C73.640331,12.825003 72.940338,13.126 72.007,13.126 Z M72.007,11.894 C72.865671,11.894 73.295,11.194007 73.295,9.794 L73.295,4.88 C73.295,4.23599678 73.2040009,3.72500189 73.022,3.347 C72.8399991,2.96899811 72.5016691,2.78 72.007,2.78 C71.5123309,2.78 71.1716676,2.96899811 70.985,3.347 C70.7983324,3.72500189 70.705,4.23599678 70.705,4.88 L70.705,9.794 C70.705,11.194007 71.1389957,11.894 72.007,11.894 Z" id="0"></path>
                <path d="M104.07,22.112 C103.089995,22.112 102.387669,21.8343361 101.963,21.279 C101.538331,20.7236639 101.326,19.9046721 101.326,18.822 L102.824,18.822 C102.824,19.4566698 102.910332,19.9653314 103.083,20.348 C103.255668,20.7306686 103.593997,20.922 104.098,20.922 C104.480669,20.922 104.765332,20.8100011 104.952,20.586 C105.138668,20.3619989 105.257666,20.0656685 105.309,19.697 C105.360334,19.3283315 105.386,18.8360031 105.386,18.22 C105.386,17.6506638 105.355667,17.1956684 105.295,16.855 C105.234333,16.5143316 105.113001,16.2530009 104.931,16.071 C104.748999,15.8889991 104.476002,15.798 104.112,15.798 C103.822665,15.798 103.568334,15.8866658 103.349,16.064 C103.129666,16.2413342 102.964001,16.465332 102.852,16.736 L101.578,16.736 L101.578,10.66 L106.464,10.66 L106.464,12.158 L102.936,12.158 L102.838,15.294 C103.239335,14.8739979 103.78533,14.664 104.476,14.664 C105.344004,14.664 105.962331,14.9603304 106.331,15.553 C106.699669,16.1456696 106.884,16.9693281 106.884,18.024 C106.884,19.3120064 106.674002,20.3153297 106.254,21.034 C105.833998,21.7526703 105.106005,22.112 104.07,22.112 Z" id="5" transform="translate(104.105000, 16.386000) rotate(30.000000) translate(-104.105000, -16.386000) "></path>
                <path d="M123.933089,35.4321778 C123.914422,35.460178 123.632092,35.5255106 123.086089,35.6281778 C122.540086,35.730845 122.164423,35.8008443 121.959089,35.8381778 L121.959089,34.7041778 C123.097761,34.4335098 123.877087,34.0228472 124.297089,33.4721778 L125.431089,33.4721778 L125.431089,44.8121778 L123.933089,44.8121778 L123.933089,35.4321778 Z M130.807089,44.9381778 C129.873751,44.9381778 129.171425,44.6348475 128.700089,44.0281778 C128.228753,43.4215081 127.993089,42.6095162 127.993089,41.5921778 L127.993089,36.7061778 C127.993089,35.6701726 128.224087,34.8558475 128.686089,34.2631778 C129.148091,33.6705082 129.855084,33.3741778 130.807089,33.3741778 C131.74976,33.3741778 132.452087,33.6705082 132.914089,34.2631778 C133.376091,34.8558475 133.607089,35.6701726 133.607089,36.7061778 L133.607089,41.5921778 C133.607089,42.6188496 133.373758,43.4331748 132.907089,44.0351778 C132.44042,44.6371808 131.740427,44.9381778 130.807089,44.9381778 Z M130.807089,43.7061778 C131.66576,43.7061778 132.095089,43.0061848 132.095089,41.6061778 L132.095089,36.6921778 C132.095089,36.0481746 132.00409,35.5371797 131.822089,35.1591778 C131.640088,34.7811759 131.301758,34.5921778 130.807089,34.5921778 C130.31242,34.5921778 129.971757,34.7811759 129.785089,35.1591778 C129.598421,35.5371797 129.505089,36.0481746 129.505089,36.6921778 L129.505089,41.6061778 C129.505089,43.0061848 129.939085,43.7061778 130.807089,43.7061778 Z" id="10" transform="translate(127.783089, 39.156178) rotate(60.000000) translate(-127.783089, -39.156178) "></path>
                <path d="M133.507,67.62 C133.488333,67.6480001 133.206003,67.7133328 132.66,67.816 C132.113997,67.9186672 131.738334,67.9886665 131.533,68.026 L131.533,66.892 C132.671672,66.621332 133.450998,66.2106694 133.871,65.66 L135.005,65.66 L135.005,77 L133.507,77 L133.507,67.62 Z M140.339,77.112 C139.358995,77.112 138.656669,76.8343361 138.232,76.279 C137.807331,75.7236639 137.595,74.9046721 137.595,73.822 L139.093,73.822 C139.093,74.4566698 139.179332,74.9653314 139.352,75.348 C139.524668,75.7306686 139.862997,75.922 140.367,75.922 C140.749669,75.922 141.034332,75.8100011 141.221,75.586 C141.407668,75.3619989 141.526666,75.0656685 141.578,74.697 C141.629334,74.3283315 141.655,73.8360031 141.655,73.22 C141.655,72.6506638 141.624667,72.1956684 141.564,71.855 C141.503333,71.5143316 141.382001,71.2530009 141.2,71.071 C141.017999,70.8889991 140.745002,70.798 140.381,70.798 C140.091665,70.798 139.837334,70.8866658 139.618,71.064 C139.398666,71.2413342 139.233001,71.465332 139.121,71.736 L137.847,71.736 L137.847,65.66 L142.733,65.66 L142.733,67.158 L139.205,67.158 L139.107,70.294 C139.508335,69.8739979 140.05433,69.664 140.745,69.664 C141.613004,69.664 142.231331,69.9603304 142.6,70.553 C142.968669,71.1456696 143.153,71.9693281 143.153,73.024 C143.153,74.3120064 142.943002,75.3153297 142.523,76.034 C142.102998,76.7526703 141.375005,77.112 140.339,77.112 Z" id="15" transform="translate(137.343000, 71.386000) rotate(90.000000) translate(-137.343000, -71.386000) "></path>
                <path d="M123.791,108.936 L126.675,104.442 C126.815001,104.217999 126.908333,104.078 126.955,104.022 C127.281668,103.499331 127.519666,103.065335 127.669,102.72 C127.818334,102.374665 127.893,101.959336 127.893,101.474 C127.893,100.932664 127.804334,100.517335 127.627,100.228 C127.449666,99.9386652 127.160335,99.794 126.759,99.794 C125.862996,99.794 125.415,100.489326 125.415,101.88 L125.415,102.258 L123.917,102.258 L123.917,101.866 C123.917,100.801995 124.136331,99.9853362 124.575,99.416 C125.013669,98.8466638 125.718328,98.562 126.689,98.562 C127.585004,98.562 128.261664,98.8163308 128.719,99.325 C129.176336,99.8336692 129.405,100.554662 129.405,101.488 C129.405,101.945336 129.351334,102.353665 129.244,102.713 C129.136666,103.072335 129.008334,103.382665 128.859,103.644 C128.709666,103.905335 128.476335,104.278664 128.159,104.764 L125.555,108.74 L129.139,108.74 L129.139,110 L123.791,110 L123.791,108.936 Z M133.353,110.126 C132.419662,110.126 131.717336,109.82267 131.246,109.216 C130.774664,108.60933 130.539,107.797338 130.539,106.78 L130.539,101.894 C130.539,100.857995 130.769998,100.04367 131.232,99.451 C131.694002,98.8583304 132.400995,98.562 133.353,98.562 C134.295671,98.562 134.997998,98.8583304 135.46,99.451 C135.922002,100.04367 136.153,100.857995 136.153,101.894 L136.153,106.78 C136.153,107.806672 135.919669,108.620997 135.453,109.223 C134.986331,109.825003 134.286338,110.126 133.353,110.126 Z M133.353,108.894 C134.211671,108.894 134.641,108.194007 134.641,106.794 L134.641,101.88 C134.641,101.235997 134.550001,100.725002 134.368,100.347 C134.185999,99.9689981 133.847669,99.78 133.353,99.78 C132.858331,99.78 132.517668,99.9689981 132.331,100.347 C132.144332,100.725002 132.051,101.235997 132.051,101.88 L132.051,106.794 C132.051,108.194007 132.484996,108.894 133.353,108.894 Z" id="20" transform="translate(129.972000, 104.344000) rotate(120.000000) translate(-129.972000, -104.344000) "></path>
                <path d="M98.896,132.936 L101.78,128.442 C101.920001,128.217999 102.013333,128.078 102.06,128.022 C102.386668,127.499331 102.624666,127.065335 102.774,126.72 C102.923334,126.374665 102.998,125.959336 102.998,125.474 C102.998,124.932664 102.909334,124.517335 102.732,124.228 C102.554666,123.938665 102.265335,123.794 101.864,123.794 C100.967996,123.794 100.52,124.489326 100.52,125.88 L100.52,126.258 L99.022,126.258 L99.022,125.866 C99.022,124.801995 99.2413311,123.985336 99.68,123.416 C100.118669,122.846664 100.823328,122.562 101.794,122.562 C102.690004,122.562 103.366664,122.816331 103.824,123.325 C104.281336,123.833669 104.51,124.554662 104.51,125.488 C104.51,125.945336 104.456334,126.353665 104.349,126.713 C104.241666,127.072335 104.113334,127.382665 103.964,127.644 C103.814666,127.905335 103.581335,128.278664 103.264,128.764 L100.66,132.74 L104.244,132.74 L104.244,134 L98.896,134 L98.896,132.936 Z M108.416,134.112 C107.435995,134.112 106.733669,133.834336 106.309,133.279 C105.884331,132.723664 105.672,131.904672 105.672,130.822 L107.17,130.822 C107.17,131.45667 107.256332,131.965331 107.429,132.348 C107.601668,132.730669 107.939997,132.922 108.444,132.922 C108.826669,132.922 109.111332,132.810001 109.298,132.586 C109.484668,132.361999 109.603666,132.065669 109.655,131.697 C109.706334,131.328331 109.732,130.836003 109.732,130.22 C109.732,129.650664 109.701667,129.195668 109.641,128.855 C109.580333,128.514332 109.459001,128.253001 109.277,128.071 C109.094999,127.888999 108.822002,127.798 108.458,127.798 C108.168665,127.798 107.914334,127.886666 107.695,128.064 C107.475666,128.241334 107.310001,128.465332 107.198,128.736 L105.924,128.736 L105.924,122.66 L110.81,122.66 L110.81,124.158 L107.282,124.158 L107.184,127.294 C107.585335,126.873998 108.13133,126.664 108.822,126.664 C109.690004,126.664 110.308331,126.96033 110.677,127.553 C111.045669,128.14567 111.23,128.969328 111.23,130.024 C111.23,131.312006 111.020002,132.31533 110.6,133.034 C110.179998,133.75267 109.452005,134.112 108.416,134.112 Z" id="25" transform="translate(105.063000, 128.337000) rotate(150.000000) translate(-105.063000, -128.337000) "></path>
                <path d="M68.626,142.126 C67.7206621,142.126 67.0323357,141.871669 66.561,141.363 C66.0896643,140.854331 65.854,140.138005 65.854,139.214 L65.854,138.836 L67.338,138.836 L67.338,139.088 C67.3566668,139.66667 67.4569991,140.109998 67.639,140.418 C67.8210009,140.726002 68.1499976,140.88 68.626,140.88 C69.1300025,140.88 69.4729991,140.705002 69.655,140.355 C69.8370009,140.004998 69.928,139.48467 69.928,138.794 C69.928,138.15933 69.8113345,137.662335 69.578,137.303 C69.3446655,136.943665 68.9666693,136.745334 68.444,136.708 C68.4066665,136.698667 68.3366672,136.694 68.234,136.694 L68.234,135.196 L68.43,135.196 C68.9620027,135.177333 69.3446655,135.037335 69.578,134.776 C69.8113345,134.514665 69.928,134.08067 69.928,133.474 C69.928,132.913997 69.8346676,132.491668 69.648,132.207 C69.4613324,131.922332 69.1253358,131.78 68.64,131.78 C68.1546642,131.78 67.8210009,131.933998 67.639,132.242 C67.4569991,132.550002 67.3566668,133.002664 67.338,133.6 L67.338,133.838 L65.854,133.838 L65.854,133.46 C65.854,132.535995 66.0896643,131.822003 66.561,131.318 C67.0323357,130.813997 67.7253288,130.562 68.64,130.562 C69.5546712,130.562 70.2476643,130.816331 70.719,131.325 C71.1903357,131.833669 71.426,132.549995 71.426,133.474 C71.426,134.13667 71.2813348,134.677998 70.992,135.098 C70.7026652,135.518002 70.3060025,135.802666 69.802,135.952 C70.3153359,136.110667 70.7143319,136.432664 70.999,136.918 C71.2836681,137.403336 71.426,138.028663 71.426,138.794 C71.426,139.848672 71.1996689,140.667664 70.747,141.251 C70.2943311,141.834336 69.5873381,142.126 68.626,142.126 Z M75.276,142.126 C74.342662,142.126 73.6403357,141.82267 73.169,141.216 C72.6976643,140.60933 72.462,139.797338 72.462,138.78 L72.462,133.894 C72.462,132.857995 72.6929977,132.04367 73.155,131.451 C73.6170023,130.85833 74.3239952,130.562 75.276,130.562 C76.2186714,130.562 76.9209977,130.85833 77.383,131.451 C77.8450023,132.04367 78.076,132.857995 78.076,133.894 L78.076,138.78 C78.076,139.806672 77.842669,140.620997 77.376,141.223 C76.909331,141.825003 76.209338,142.126 75.276,142.126 Z M75.276,140.894 C76.134671,140.894 76.564,140.194007 76.564,138.794 L76.564,133.88 C76.564,133.235997 76.4730009,132.725002 76.291,132.347 C76.1089991,131.968998 75.7706691,131.78 75.276,131.78 C74.7813309,131.78 74.4406676,131.968998 74.254,132.347 C74.0673324,132.725002 73.974,133.235997 73.974,133.88 L73.974,138.794 C73.974,140.194007 74.4079957,140.894 75.276,140.894 Z" id="30" transform="translate(71.965000, 136.344000) rotate(180.000000) translate(-71.965000, -136.344000) "></path>
                <path d="M36.731,133.126 C35.8256621,133.126 35.1373357,132.871669 34.666,132.363 C34.1946643,131.854331 33.959,131.138005 33.959,130.214 L33.959,129.836 L35.443,129.836 L35.443,130.088 C35.4616668,130.66667 35.5619991,131.109998 35.744,131.418 C35.9260009,131.726002 36.2549976,131.88 36.731,131.88 C37.2350025,131.88 37.5779991,131.705002 37.76,131.355 C37.9420009,131.004998 38.033,130.48467 38.033,129.794 C38.033,129.15933 37.9163345,128.662335 37.683,128.303 C37.4496655,127.943665 37.0716693,127.745334 36.549,127.708 C36.5116665,127.698667 36.4416672,127.694 36.339,127.694 L36.339,126.196 L36.535,126.196 C37.0670027,126.177333 37.4496655,126.037335 37.683,125.776 C37.9163345,125.514665 38.033,125.08067 38.033,124.474 C38.033,123.913997 37.9396676,123.491668 37.753,123.207 C37.5663324,122.922332 37.2303358,122.78 36.745,122.78 C36.2596642,122.78 35.9260009,122.933998 35.744,123.242 C35.5619991,123.550002 35.4616668,124.002664 35.443,124.6 L35.443,124.838 L33.959,124.838 L33.959,124.46 C33.959,123.535995 34.1946643,122.822003 34.666,122.318 C35.1373357,121.813997 35.8303288,121.562 36.745,121.562 C37.6596712,121.562 38.3526643,121.816331 38.824,122.325 C39.2953357,122.833669 39.531,123.549995 39.531,124.474 C39.531,125.13667 39.3863348,125.677998 39.097,126.098 C38.8076652,126.518002 38.4110025,126.802666 37.907,126.952 C38.4203359,127.110667 38.8193319,127.432664 39.104,127.918 C39.3886681,128.403336 39.531,129.028663 39.531,129.794 C39.531,130.848672 39.3046689,131.667664 38.852,132.251 C38.3993311,132.834336 37.6923381,133.126 36.731,133.126 Z M43.339,133.112 C42.3589951,133.112 41.6566688,132.834336 41.232,132.279 C40.8073312,131.723664 40.595,130.904672 40.595,129.822 L42.093,129.822 C42.093,130.45667 42.1793325,130.965331 42.352,131.348 C42.5246675,131.730669 42.8629975,131.922 43.367,131.922 C43.7496686,131.922 44.0343324,131.810001 44.221,131.586 C44.4076676,131.361999 44.5266664,131.065669 44.578,130.697 C44.6293336,130.328331 44.655,129.836003 44.655,129.22 C44.655,128.650664 44.624667,128.195668 44.564,127.855 C44.503333,127.514332 44.3820009,127.253001 44.2,127.071 C44.0179991,126.888999 43.7450018,126.798 43.381,126.798 C43.0916652,126.798 42.8373344,126.886666 42.618,127.064 C42.3986656,127.241334 42.2330006,127.465332 42.121,127.736 L40.847,127.736 L40.847,121.66 L45.733,121.66 L45.733,123.158 L42.205,123.158 L42.107,126.294 C42.5083353,125.873998 43.0543299,125.664 43.745,125.664 C44.6130043,125.664 45.2313315,125.96033 45.6,126.553 C45.9686685,127.14567 46.153,127.969328 46.153,129.024 C46.153,130.312006 45.9430021,131.31533 45.523,132.034 C45.1029979,132.75267 44.3750052,133.112 43.339,133.112 Z" id="35" transform="translate(40.056000, 127.344000) rotate(210.000000) translate(-40.056000, -127.344000) "></path>
                <path d="M12.948,107.018 L9.686,107.018 L9.686,105.352 L12.598,98.66 L14.46,98.66 L14.46,105.604 L15.72,105.604 L15.72,107.018 L14.46,107.018 L14.46,110 L12.948,110 L12.948,107.018 Z M12.948,105.604 L12.948,100.564 L11.198,105.604 L12.948,105.604 Z M19.444,110.126 C18.510662,110.126 17.8083357,109.82267 17.337,109.216 C16.8656643,108.60933 16.63,107.797338 16.63,106.78 L16.63,101.894 C16.63,100.857995 16.8609977,100.04367 17.323,99.451 C17.7850023,98.8583304 18.4919952,98.562 19.444,98.562 C20.3866714,98.562 21.0889977,98.8583304 21.551,99.451 C22.0130023,100.04367 22.244,100.857995 22.244,101.894 L22.244,106.78 C22.244,107.806672 22.010669,108.620997 21.544,109.223 C21.077331,109.825003 20.377338,110.126 19.444,110.126 Z M19.444,108.894 C20.302671,108.894 20.732,108.194007 20.732,106.794 L20.732,101.88 C20.732,101.235997 20.6410009,100.725002 20.459,100.347 C20.2769991,99.9689981 19.9386691,99.78 19.444,99.78 C18.9493309,99.78 18.6086676,99.9689981 18.422,100.347 C18.2353324,100.725002 18.142,101.235997 18.142,101.88 L18.142,106.794 C18.142,108.194007 18.5759957,108.894 19.444,108.894 Z" id="40" transform="translate(15.965000, 104.344000) rotate(240.000000) translate(-15.965000, -104.344000) "></path>
                <path d="M4.553,74.018 L1.291,74.018 L1.291,72.352 L4.203,65.66 L6.065,65.66 L6.065,72.604 L7.325,72.604 L7.325,74.018 L6.065,74.018 L6.065,77 L4.553,77 L4.553,74.018 Z M4.553,72.604 L4.553,67.564 L2.803,72.604 L4.553,72.604 Z M11.007,77.112 C10.0269951,77.112 9.32466879,76.8343361 8.9,76.279 C8.47533121,75.7236639 8.263,74.9046721 8.263,73.822 L9.761,73.822 C9.761,74.4566698 9.84733247,74.9653314 10.02,75.348 C10.1926675,75.7306686 10.5309975,75.922 11.035,75.922 C11.4176686,75.922 11.7023324,75.8100011 11.889,75.586 C12.0756676,75.3619989 12.1946664,75.0656685 12.246,74.697 C12.2973336,74.3283315 12.323,73.8360031 12.323,73.22 C12.323,72.6506638 12.292667,72.1956684 12.232,71.855 C12.171333,71.5143316 12.0500009,71.2530009 11.868,71.071 C11.6859991,70.8889991 11.4130018,70.798 11.049,70.798 C10.7596652,70.798 10.5053344,70.8866658 10.286,71.064 C10.0666656,71.2413342 9.90100056,71.465332 9.789,71.736 L8.515,71.736 L8.515,65.66 L13.401,65.66 L13.401,67.158 L9.873,67.158 L9.775,70.294 C10.1763353,69.8739979 10.7223299,69.664 11.413,69.664 C12.2810043,69.664 12.8993315,69.9603304 13.268,70.553 C13.6366685,71.1456696 13.821,71.9693281 13.821,73.024 C13.821,74.3120064 13.6110021,75.3153297 13.191,76.034 C12.7709979,76.7526703 12.0430052,77.112 11.007,77.112 Z" id="45" transform="translate(7.556000, 71.386000) rotate(270.000000) translate(-7.556000, -71.386000) "></path>
                <path d="M12.633,45.112 C11.6529951,45.112 10.9506688,44.8343361 10.526,44.279 C10.1013312,43.7236639 9.889,42.9046721 9.889,41.822 L11.387,41.822 C11.387,42.4566698 11.4733325,42.9653314 11.646,43.348 C11.8186675,43.7306686 12.1569975,43.922 12.661,43.922 C13.0436686,43.922 13.3283324,43.8100011 13.515,43.586 C13.7016676,43.3619989 13.8206664,43.0656685 13.872,42.697 C13.9233336,42.3283315 13.949,41.8360031 13.949,41.22 C13.949,40.6506638 13.918667,40.1956684 13.858,39.855 C13.797333,39.5143316 13.6760009,39.2530009 13.494,39.071 C13.3119991,38.8889991 13.0390018,38.798 12.675,38.798 C12.3856652,38.798 12.1313344,38.8866658 11.912,39.064 C11.6926656,39.2413342 11.5270006,39.465332 11.415,39.736 L10.141,39.736 L10.141,33.66 L15.027,33.66 L15.027,35.158 L11.499,35.158 L11.401,38.294 C11.8023353,37.8739979 12.3483299,37.664 13.039,37.664 C13.9070043,37.664 14.5253315,37.9603304 14.894,38.553 C15.2626685,39.1456696 15.447,39.9693281 15.447,41.024 C15.447,42.3120064 15.2370021,43.3153297 14.817,44.034 C14.3969979,44.7526703 13.6690052,45.112 12.633,45.112 Z M19.339,45.126 C18.405662,45.126 17.7033357,44.8226697 17.232,44.216 C16.7606643,43.6093303 16.525,42.7973384 16.525,41.78 L16.525,36.894 C16.525,35.8579948 16.7559977,35.0436696 17.218,34.451 C17.6800023,33.8583304 18.3869952,33.562 19.339,33.562 C20.2816714,33.562 20.9839977,33.8583304 21.446,34.451 C21.9080023,35.0436696 22.139,35.8579948 22.139,36.894 L22.139,41.78 C22.139,42.8066718 21.905669,43.620997 21.439,44.223 C20.972331,44.825003 20.272338,45.126 19.339,45.126 Z M19.339,43.894 C20.197671,43.894 20.627,43.194007 20.627,41.794 L20.627,36.88 C20.627,36.2359968 20.5360009,35.7250019 20.354,35.347 C20.1719991,34.9689981 19.8336691,34.78 19.339,34.78 C18.8443309,34.78 18.5036676,34.9689981 18.317,35.347 C18.1303324,35.7250019 18.037,36.2359968 18.037,36.88 L18.037,41.794 C18.037,43.194007 18.4709957,43.894 19.339,43.894 Z" id="50" transform="translate(16.014000, 39.344000) rotate(300.000000) translate(-16.014000, -39.344000) "></path>
                <path d="M36.738,22.112 C35.7579951,22.112 35.0556688,21.8343361 34.631,21.279 C34.2063312,20.7236639 33.994,19.9046721 33.994,18.822 L35.492,18.822 C35.492,19.4566698 35.5783325,19.9653314 35.751,20.348 C35.9236675,20.7306686 36.2619975,20.922 36.766,20.922 C37.1486686,20.922 37.4333324,20.8100011 37.62,20.586 C37.8066676,20.3619989 37.9256664,20.0656685 37.977,19.697 C38.0283336,19.3283315 38.054,18.8360031 38.054,18.22 C38.054,17.6506638 38.023667,17.1956684 37.963,16.855 C37.902333,16.5143316 37.7810009,16.2530009 37.599,16.071 C37.4169991,15.8889991 37.1440018,15.798 36.78,15.798 C36.4906652,15.798 36.2363344,15.8866658 36.017,16.064 C35.7976656,16.2413342 35.6320006,16.465332 35.52,16.736 L34.246,16.736 L34.246,10.66 L39.132,10.66 L39.132,12.158 L35.604,12.158 L35.506,15.294 C35.9073353,14.8739979 36.4533299,14.664 37.144,14.664 C38.0120043,14.664 38.6303315,14.9603304 38.999,15.553 C39.3676685,16.1456696 39.552,16.9693281 39.552,18.024 C39.552,19.3120064 39.3420021,20.3153297 38.922,21.034 C38.5019979,21.7526703 37.7740052,22.112 36.738,22.112 Z M43.402,22.112 C42.4219951,22.112 41.7196688,21.8343361 41.295,21.279 C40.8703312,20.7236639 40.658,19.9046721 40.658,18.822 L42.156,18.822 C42.156,19.4566698 42.2423325,19.9653314 42.415,20.348 C42.5876675,20.7306686 42.9259975,20.922 43.43,20.922 C43.8126686,20.922 44.0973324,20.8100011 44.284,20.586 C44.4706676,20.3619989 44.5896664,20.0656685 44.641,19.697 C44.6923336,19.3283315 44.718,18.8360031 44.718,18.22 C44.718,17.6506638 44.687667,17.1956684 44.627,16.855 C44.566333,16.5143316 44.4450009,16.2530009 44.263,16.071 C44.0809991,15.8889991 43.8080018,15.798 43.444,15.798 C43.1546652,15.798 42.9003344,15.8866658 42.681,16.064 C42.4616656,16.2413342 42.2960006,16.465332 42.184,16.736 L40.91,16.736 L40.91,10.66 L45.796,10.66 L45.796,12.158 L42.268,12.158 L42.17,15.294 C42.5713353,14.8739979 43.1173299,14.664 43.808,14.664 C44.6760043,14.664 45.2943315,14.9603304 45.663,15.553 C46.0316685,16.1456696 46.216,16.9693281 46.216,18.024 C46.216,19.3120064 46.0060021,20.3153297 45.586,21.034 C45.1659979,21.7526703 44.4380052,22.112 43.402,22.112 Z" id="55" transform="translate(40.105000, 16.386000) rotate(330.000000) translate(-40.105000, -16.386000) "></path>
            </g>
            <g id="Center">
                <use fill="black" fill-opacity="1" filter="url(#filter-7)" xlink:href="#path-6"></use>
                <use fill="url(#linearGradient-1)" fill-rule="evenodd" xlink:href="#path-6"></use>
            </g>
            <path d="M100.5,180 C56.5933624,180 21,144.406638 21,100.5 C21,56.5933624 56.5933624,21 100.5,21 C144.406638,21 180,56.5933624 180,100.5 C180,144.406638 144.406638,180 100.5,180 Z" id="Glass" fill="url(#linearGradient-8)" opacity="0.0963541667"></path>
        </g>
    </g>
</svg>